<?xml version="1.0" encoding="utf-8"?>
<!-- Generator: Adobe Illustrator 20.1.0, SVG Export Plug-In . SVG Version: 6.00 Build 0)  -->
<svg version="1.1" xmlns="http://www.w3.org/2000/svg" xmlns:xlink="http://www.w3.org/1999/xlink" x="0px" y="0px"
	 viewBox="0 0 669 164.2" style="enable-background:new 0 0 669 164.2;" xml:space="preserve">
<style type="text/css">
	.st0{fill-rule:evenodd;clip-rule:evenodd;fill:#F05A28;}
	.st1{fill:#FCAE41;}
	.st2{fill:#FFFFFF;}
	.st3{fill:#662D91;}
	.st4{clip-path:url(#SVGID_2_);fill:#662D91;}
	.st5{fill:#F05A28;}
</style>
<g id="ICON">
	<g>
		<path class="st0" d="M65.7,164.2C60.6,165.1,19,83.6,10,74c-4.3-4.5-9.4-8.4-10-8.3c0.1-0.5,0.4-0.6,0.5-0.7
			C30.6,45.9,72.1,35.2,91.1,8c1.8-2.6,4.3-5.9,6.6-8c0.4,0.1,0.4,0.2,0.6,0.5c18.6,30,29.3,72.9,56,91.6c1.4,1,8.2,4.9,8.5,6.5
			c-0.1,0.3-0.2,0.3-0.5,0.7c-18.5,26.5-69.7,29.9-89.8,55.2C70.7,156.7,67.2,160.6,65.7,164.2"/>
		<path class="st1" d="M128.8,84.6c0,27.2-21.8,49.3-48.8,49.3c-26.9,0-48.8-22.1-48.8-49.3C31.2,57.4,53,35.4,80,35.4
			C106.9,35.4,128.8,57.4,128.8,84.6"/>
		<path class="st2" d="M86.9,79.6c-2.1-12.3,26.6-24,31-25.9c-0.3-0.4-0.7-0.8-1-1.2C112.1,54,84.6,62.6,80,62.6
			c-4.7,0-32.2-8.6-36.9-10.1c-0.3,0.4-0.7,0.8-1,1.2c4.4,1.9,33.1,13.6,31,25.9c-1,5.9-3.2,14-8.5,25.7c-3.5,7.8-9.4,17.9-11,20.7
			c0.4,0.3,0.9,0.6,1.3,0.8c2.5-3.7,15.3-21.8,25.1-22c9.8,0.1,22.6,18.2,25.1,22c0.4-0.3,0.9-0.5,1.3-0.8
			c-1.6-2.7-7.4-12.8-11-20.7C90.1,93.6,87.9,85.5,86.9,79.6"/>
		<g>
			<g>
				<g>
					<path class="st3" d="M118.3,63.2l0.1-1.3c0,0-33,0.6-38.4,0.6c-5.4,0-38.4-0.6-38.4-0.6l0.1,1.3c0,0,31.2,3.2,31.8,15.6
						c0.3,5.9,0.1,11.3-3.7,23.5c-0.8,2.5-1.4,5.7-1.9,9.1c-1.3,8.6-1.7,18.2-1.8,20.4c0.5,0.2,1.1,0.3,1.6,0.5
						c0.3-3.5,2.3-27.1,12.4-27.1c10,0,12.1,23.6,12.4,27.1c0.5-0.1,1.1-0.3,1.6-0.5c-0.1-2.1-0.5-11.8-1.8-20.4
						c-0.5-3.4-1.1-6.6-1.9-9.1c-3.9-12.3-4-17.6-3.7-23.5C87.1,66.4,118.3,63.2,118.3,63.2"/>
				</g>
			</g>
		</g>
		<g>
			<g>
				<g>
					<defs>
						<rect id="SVGID_1_" x="75.3" y="48.4" width="9.3" height="14.2"/>
					</defs>
					<clipPath id="SVGID_2_">
						<use xlink:href="#SVGID_1_"  style="overflow:visible;"/>
					</clipPath>
					<path class="st4" d="M84.5,55.9c0,4.1-2.1,6.7-4.6,6.7c-2.6,0-4.6-2.6-4.6-6.7c0-4.1,2.1-7.5,4.6-7.5
						C82.5,48.4,84.5,51.8,84.5,55.9"/>
				</g>
			</g>
		</g>
	</g>
</g>
<g id="TYPE">
	<g>
		<path class="st3" d="M193.6,25.2h52.5l-4.3,15.9h-34.2l-3,11.1h30.9l-4,15.1h-30.9l-6.3,23.4H176L193.6,25.2z"/>
		<path class="st3" d="M274.8,24.7h17.8l10.2,66h-19.1l-1.6-11.7h-25.3L249,90.8h-19.8L274.8,24.7z M280.7,64.9l-2.3-18.8L266,64.9
			H280.7z"/>
		<path class="st3" d="M307.3,79.9L319,67.8c6.4,5.9,13,8.9,20.2,8.9c4.3,0,7.4-1.9,7.4-4.9c0-2.5-1.8-3.8-11-7.4
			c-10.4-3.9-17.1-8.4-17.1-18.1c0-13,11.8-22.3,27.8-22.3c11.5,0,20.6,3.7,26.9,9.7l-11.2,12.6c-5-4.3-10.7-7.2-17.3-7.2
			c-4.4,0-7.1,2.1-7.1,4.7c0,2.6,2,3.6,11,7.1c10.1,3.8,17,8.4,17,18.3c0,13.5-11.6,22.7-27.9,22.7
			C324.9,91.9,314.3,87.5,307.3,79.9z"/>
		<path class="st3" d="M397.6,41.1h-19.7l4.3-15.9h57.4l-4.2,15.9h-19.7l-13.3,49.7h-18.3L397.6,41.1z"/>
		<path class="st5" d="M446.6,25.2h19.2l15.6,25.4l15.6-25.4h19.2v65.6h-18.1V53.1l-16.8,25.7h-0.4l-16.7-25.5v37.5h-17.8V25.2z"/>
		<path class="st5" d="M530,25.2h52.7v15.5H548v9.9h31.5v14.3H548v10.4h35.2v15.5H530V25.2z"/>
		<path class="st5" d="M595,25.2h25.3c23.4,0,37,13.5,37,32.4v0.2c0,18.9-13.8,33-37.4,33H595V25.2z M620.6,74.7
			c10.9,0,18.1-6,18.1-16.6v-0.2c0-10.5-7.2-16.6-18.1-16.6h-7.4v33.3H620.6z"/>
	</g>
	<g>
		<path class="st5" d="M654.8,31.6c0,0.5,0.1,0.8,0.3,1.1c0.4,0.5,1,0.8,1.9,0.8c0.4,0,0.8-0.1,1.1-0.2c0.6-0.2,1-0.6,1-1.2
			c0-0.4-0.1-0.7-0.4-0.9c-0.3-0.2-0.7-0.3-1.3-0.5l-1.1-0.2c-0.7-0.2-1.2-0.3-1.5-0.5c-0.5-0.3-0.8-0.8-0.8-1.5
			c0-0.7,0.2-1.3,0.7-1.7c0.5-0.5,1.2-0.7,2.1-0.7c0.8,0,1.5,0.2,2.1,0.6c0.6,0.4,0.9,1,0.9,1.9h-1c-0.1-0.4-0.2-0.7-0.3-1
			c-0.3-0.4-0.9-0.6-1.7-0.6c-0.6,0-1.1,0.1-1.4,0.4c-0.3,0.3-0.4,0.6-0.4,0.9c0,0.4,0.2,0.7,0.5,0.9c0.2,0.1,0.7,0.3,1.4,0.4
			l1.1,0.3c0.5,0.1,1,0.3,1.2,0.5c0.5,0.4,0.8,0.9,0.8,1.6c0,0.9-0.3,1.5-1,1.9s-1.4,0.6-2.2,0.6c-1,0-1.8-0.3-2.3-0.8
			c-0.6-0.5-0.8-1.2-0.8-2H654.8z M661.4,26.3h1.5l2.3,6.7l2.3-6.7h1.5v7.9h-1v-4.7c0-0.2,0-0.4,0-0.8c0-0.4,0-0.8,0-1.2l-2.3,6.7
			h-1.1l-2.3-6.7v0.2c0,0.2,0,0.5,0,0.9c0,0.4,0,0.7,0,0.9v4.7h-1V26.3z"/>
	</g>
	<g>
		<path class="st5" d="M175.7,133.5v-25.2h12.6v24.9c0,6.5,3.3,9.5,8.3,9.5s8.3-2.9,8.3-9.2v-25.2h12.6v24.8
			c0,14.5-8.3,20.8-21,20.8C183.7,154,175.7,147.6,175.7,133.5z"/>
		<path class="st5" d="M225.1,108.4h21.2c6.8,0,11.6,1.8,14.6,4.9c2.6,2.6,4,6,4,10.4v0.1c0,6.8-3.6,11.4-9.2,13.8l10.7,15.6H252
			l-9-13.6h-0.1h-5.3v13.6h-12.4V108.4z M245.7,129.9c4.2,0,6.7-2,6.7-5.3v-0.1c0-3.5-2.6-5.3-6.7-5.3h-8.1v10.8H245.7z"/>
		<path class="st5" d="M269.8,130.9v-0.1c0-13.1,10.2-23.3,24.1-23.3c7.9,0,13.4,2.4,18.2,6.5l-7.3,8.8c-3.2-2.7-6.4-4.2-10.8-4.2
			c-6.5,0-11.5,5.4-11.5,12.3v0.1c0,7.2,5.1,12.4,12.2,12.4c3,0,5.3-0.6,7.2-1.9v-5.4H293V127h20.6v20.2c-4.7,3.9-11.3,6.9-19.5,6.9
			C280.2,154.1,269.8,144.5,269.8,130.9z"/>
		<path class="st5" d="M320.8,108.4h36v10.6h-23.7v6.8h21.5v9.8h-21.5v7.1h24.1v10.6h-36.3V108.4z"/>
		<path class="st5" d="M363.8,108.4h11.6l18.4,23.7v-23.7h12.3v44.8h-10.9l-19.1-24.6v24.6h-12.3V108.4z"/>
		<path class="st5" d="M425.2,119.3h-13.4v-10.9h39.3v10.9h-13.4v33.9h-12.4V119.3z"/>
		<path class="st5" d="M469.4,130.9v-0.1c0-13.1,10-23.3,23.6-23.3c9.2,0,15,3.8,19,9.3l-9.3,7.2c-2.6-3.2-5.5-5.2-9.8-5.2
			c-6.3,0-10.7,5.3-10.7,11.8v0.1c0,6.7,4.4,12,10.7,12c4.7,0,7.4-2.2,10.1-5.4l9.3,6.7c-4.2,5.8-9.9,10.1-19.8,10.1
			C479.7,154.1,469.4,144.3,469.4,130.9z"/>
		<path class="st5" d="M533,108.1h12l19.1,45.1h-13.3l-3.3-8h-17.3l-3.2,8h-13.1L533,108.1z M543.9,135.5l-5-12.7l-5.1,12.7H543.9z"
			/>
		<path class="st5" d="M568.6,108.4h21.2c6.8,0,11.6,1.8,14.6,4.9c2.6,2.6,4,6,4,10.4v0.1c0,6.8-3.6,11.4-9.2,13.8l10.7,15.6h-14.3
			l-9-13.6h-0.1H581v13.6h-12.4V108.4z M589.2,129.9c4.2,0,6.7-2,6.7-5.3v-0.1c0-3.5-2.6-5.3-6.7-5.3H581v10.8H589.2z"/>
		<path class="st5" d="M614.9,108.4h36v10.6h-23.7v6.8h21.5v9.8h-21.5v7.1h24.1v10.6h-36.3V108.4z"/>
	</g>
</g>
</svg>
